<svg width="24" height="24" viewBox="0 0 22 20" fill="none" xmlns="http://www.w3.org/2000/svg">
<path d="M4 20C3.71666 20 3.479 19.904 3.287 19.712C3.09566 19.5207 3 19.2833 3 19V10.625L2 11.4C1.76666 11.5667 1.51666 11.6333 1.25 11.6C0.983329 11.5667 0.766663 11.4333 0.599996 11.2C0.433329 10.9667 0.366663 10.7167 0.399996 10.45C0.433329 10.1833 0.558329 9.96667 0.774996 9.8L3 8.1V6C3 5.71667 3.09566 5.479 3.287 5.287C3.479 5.09567 3.71666 5 4 5C4.28333 5 4.521 5.09567 4.713 5.287C4.90433 5.479 5 5.71667 5 6V6.575L10.4 2.475C10.4833 2.40833 10.575 2.354 10.675 2.312C10.775 2.27067 10.8833 2.25 11 2.25C11.1167 2.25 11.225 2.27067 11.325 2.312C11.425 2.354 11.5167 2.40833 11.6 2.475L21.225 9.8C21.4417 9.96667 21.5667 10.1833 21.6 10.45C21.6333 10.7167 21.5667 10.9667 21.4 11.2C21.2333 11.4167 21.0167 11.5417 20.75 11.575C20.4833 11.6083 20.2417 11.5417 20.025 11.375L19 10.625V19C19 19.2833 18.904 19.5207 18.712 19.712C18.5207 19.904 18.2833 20 18 20H4ZM5 18H10V15C10 14.7167 10.096 14.479 10.288 14.287C10.4793 14.0957 10.7167 14 11 14C11.2833 14 11.521 14.0957 11.713 14.287C11.9043 14.479 12 14.7167 12 15V18H17V9.1L11 4.525L5 9.1V18ZM4.3 4C3.93333 4 3.63733 3.84567 3.412 3.537C3.18733 3.229 3.175 2.9 3.375 2.55C3.64166 2.08333 4.00433 1.70833 4.463 1.425C4.921 1.14167 5.43333 1 6 1C6.18333 1 6.35833 0.958333 6.525 0.875C6.69166 0.791667 6.81666 0.658333 6.9 0.475C6.98333 0.325 7.096 0.208333 7.238 0.125C7.37933 0.0416667 7.54166 0 7.725 0C8.10833 0 8.4 0.158333 8.6 0.475C8.8 0.791667 8.80833 1.11667 8.625 1.45C8.35833 1.91667 7.99566 2.29167 7.537 2.575C7.079 2.85833 6.56666 3 6 3C5.81666 3 5.64166 3.04567 5.475 3.137C5.30833 3.229 5.18333 3.35833 5.1 3.525C5.01666 3.69167 4.9 3.81233 4.75 3.887C4.6 3.96233 4.45 4 4.3 4Z" fill="#696969"/>
</svg>
