<svg width="14" height="9" viewBox="0 0 14 9" fill="none" xmlns="http://www.w3.org/2000/svg">
<path d="M6.99999 8.44166C6.84444 8.44166 6.6986 8.41716 6.56249 8.36816C6.42638 8.31994 6.29999 8.23749 6.18332 8.12083L0.787492 2.72499C0.573603 2.5111 0.471714 2.24355 0.481825 1.92233C0.491158 1.60188 0.602769 1.33472 0.816658 1.12083C1.03055 0.906937 1.30277 0.799992 1.63332 0.799992C1.96388 0.799992 2.2361 0.906937 2.44999 1.12083L6.99999 5.67083L11.5792 1.09166C11.793 0.87777 12.0606 0.775493 12.3818 0.784826C12.7023 0.794937 12.9694 0.906937 13.1833 1.12083C13.3972 1.33472 13.5042 1.60694 13.5042 1.93749C13.5042 2.26805 13.3972 2.54027 13.1833 2.75416L7.81666 8.12083C7.69999 8.23749 7.5736 8.31994 7.43749 8.36816C7.30138 8.41716 7.15555 8.44166 6.99999 8.44166Z" fill="#CACACA"/>
</svg>
