<svg width="20" height="18" viewBox="0 0 20 18" fill="none" xmlns="http://www.w3.org/2000/svg">
<path d="M10 17.4C9.68336 17.4 9.37502 17.325 9.07502 17.175C8.77502 17.025 8.52502 16.8 8.32502 16.5L1.12502 5.675C0.808358 5.19167 0.696025 4.66233 0.788025 4.087C0.879358 3.51233 1.15002 3.075 1.60002 2.775C2.85002 1.925 4.18336 1.25 5.60002 0.75C7.01669 0.25 8.48336 0 10 0C11.5167 0 12.9834 0.245667 14.4 0.737C15.8167 1.229 17.15 1.90833 18.4 2.775C18.8334 3.075 19.1 3.51233 19.2 4.087C19.3 4.66233 19.1917 5.19167 18.875 5.675L11.675 16.5C11.475 16.8 11.225 17.025 10.925 17.175C10.625 17.325 10.3167 17.4 10 17.4ZM10 15.4L17.3 4.45C16.2167 3.7 15.0584 3.104 13.825 2.662C12.5917 2.22067 11.3167 2 10 2C8.68336 2 7.41269 2.22067 6.18802 2.662C4.96269 3.104 3.80002 3.7 2.70002 4.45L10 15.4ZM7.50002 7C7.91669 7 8.27069 6.854 8.56203 6.562C8.85402 6.27067 9.00002 5.91667 9.00002 5.5C9.00002 5.08333 8.85402 4.72933 8.56203 4.438C8.27069 4.146 7.91669 4 7.50002 4C7.08336 4 6.72936 4.146 6.43802 4.438C6.14602 4.72933 6.00002 5.08333 6.00002 5.5C6.00002 5.91667 6.14602 6.27067 6.43802 6.562C6.72936 6.854 7.08336 7 7.50002 7ZM10 12C10.4167 12 10.7707 11.854 11.062 11.562C11.354 11.2707 11.5 10.9167 11.5 10.5C11.5 10.0833 11.354 9.72933 11.062 9.438C10.7707 9.146 10.4167 9 10 9C9.58336 9 9.22936 9.146 8.93802 9.438C8.64602 9.72933 8.50002 10.0833 8.50002 10.5C8.50002 10.9167 8.64602 11.2707 8.93802 11.562C9.22936 11.854 9.58336 12 10 12Z" fill="#696969"/>
</svg>
