<svg width="20" height="20" viewBox="0 0 20 20" fill="none" xmlns="http://www.w3.org/2000/svg">
<path d="M10 10C8.71669 10 7.61808 9.54306 6.70419 8.62917C5.7903 7.71528 5.33335 6.61667 5.33335 5.33334C5.33335 4.05 5.7903 2.95139 6.70419 2.03751C7.61808 1.12362 8.71669 0.666672 10 0.666672C11.2834 0.666672 12.382 1.12362 13.2959 2.03751C14.2097 2.95139 14.6667 4.05 14.6667 5.33334C14.6667 6.61667 14.2097 7.71528 13.2959 8.62917C12.382 9.54306 11.2834 10 10 10ZM17 19.3333H3.00002C2.35835 19.3333 1.80924 19.1051 1.35269 18.6485C0.895353 18.1912 0.666687 17.6417 0.666687 17V16.0667C0.666687 15.4056 0.837021 14.7977 1.17769 14.2432C1.51758 13.6894 1.96946 13.2667 2.53335 12.975C3.73891 12.3722 4.96391 11.9199 6.20835 11.6182C7.4528 11.3172 8.71669 11.1667 10 11.1667C11.2834 11.1667 12.5472 11.3172 13.7917 11.6182C15.0361 11.9199 16.2611 12.3722 17.4667 12.975C18.0306 13.2667 18.4825 13.6894 18.8224 14.2432C19.163 14.7977 19.3334 15.4056 19.3334 16.0667V17C19.3334 17.6417 19.1051 18.1912 18.6485 18.6485C18.1912 19.1051 17.6417 19.3333 17 19.3333ZM3.00002 17H17V16.0667C17 15.8528 16.9467 15.6583 16.8402 15.4833C16.7329 15.3083 16.5917 15.1722 16.4167 15.075C15.3667 14.55 14.307 14.1561 13.2375 13.8932C12.1681 13.6311 11.0889 13.5 10 13.5C8.91113 13.5 7.83196 13.6311 6.76252 13.8932C5.69308 14.1561 4.63335 14.55 3.58335 15.075C3.40835 15.1722 3.26758 15.3083 3.16102 15.4833C3.05369 15.6583 3.00002 15.8528 3.00002 16.0667V17ZM10 7.66667C10.6417 7.66667 11.1912 7.438 11.6485 6.98067C12.1051 6.52412 12.3334 5.97501 12.3334 5.33334C12.3334 4.69167 12.1051 4.14256 11.6485 3.686C11.1912 3.22867 10.6417 3.00001 10 3.00001C9.35835 3.00001 8.80924 3.22867 8.35269 3.686C7.89535 4.14256 7.66669 4.69167 7.66669 5.33334C7.66669 5.97501 7.89535 6.52412 8.35269 6.98067C8.80924 7.438 9.35835 7.66667 10 7.66667Z" fill="#696969"/>
</svg>
