<svg width="22" height="18" viewBox="0 0 22 18" fill="none" xmlns="http://www.w3.org/2000/svg">
<path d="M4.02503 18C3.47503 18 3.00436 17.8043 2.61303 17.413C2.22103 17.021 2.02503 16.55 2.02503 16V8.05C1.6417 7.7 1.34603 7.25 1.13803 6.7C0.929363 6.15 0.925029 5.55 1.12503 4.9L2.17503 1.5C2.30836 1.06667 2.54603 0.708333 2.88803 0.425C3.22936 0.141667 3.62503 0 4.07503 0H17.975C18.425 0 18.8167 0.137333 19.15 0.412C19.4834 0.687333 19.725 1.05 19.875 1.5L20.925 4.9C21.125 5.55 21.121 6.14167 20.913 6.675C20.7044 7.20833 20.4084 7.66667 20.025 8.05V16C20.025 16.55 19.8294 17.021 19.438 17.413C19.046 17.8043 18.575 18 18.025 18H4.02503ZM13.225 7C13.675 7 14.0167 6.84567 14.25 6.537C14.4834 6.229 14.575 5.88333 14.525 5.5L13.975 2H12.025V5.7C12.025 6.05 12.1417 6.35433 12.375 6.613C12.6084 6.871 12.8917 7 13.225 7ZM8.72503 7C9.10836 7 9.42103 6.871 9.66303 6.613C9.90436 6.35433 10.025 6.05 10.025 5.7V2H8.07503L7.52503 5.5C7.45836 5.9 7.54603 6.25 7.78803 6.55C8.02936 6.85 8.3417 7 8.72503 7ZM4.27503 7C4.57503 7 4.83736 6.89167 5.06203 6.675C5.28736 6.45833 5.42503 6.18333 5.47503 5.85L6.02503 2H4.07503L3.07503 5.35C2.97503 5.68333 3.02903 6.04167 3.23703 6.425C3.4457 6.80833 3.7917 7 4.27503 7ZM17.775 7C18.2584 7 18.6084 6.80833 18.825 6.425C19.0417 6.04167 19.0917 5.68333 18.975 5.35L17.925 2H16.025L16.575 5.85C16.625 6.18333 16.7627 6.45833 16.988 6.675C17.2127 6.89167 17.475 7 17.775 7Z" fill="#CACACA"/>
</svg>
