<svg width="24" height="24" viewBox="0 0 24 24" fill="none" xmlns="http://www.w3.org/2000/svg">
<mask id="mask0_2_103" style="mask-type:alpha" maskUnits="userSpaceOnUse" x="0" y="0" width="24" height="24">
<rect width="24" height="24" fill="#D9D9D9"/>
</mask>
<g mask="url(#mask0_2_103)">
<path d="M12 20.4C11.6834 20.4 11.375 20.325 11.075 20.175C10.775 20.025 10.525 19.8 10.325 19.5L3.12502 8.675C2.80836 8.19167 2.69602 7.66233 2.78802 7.087C2.87936 6.51233 3.15002 6.075 3.60002 5.775C4.85002 4.925 6.18336 4.25 7.60002 3.75C9.01669 3.25 10.4834 3 12 3C13.5167 3 14.9834 3.24567 16.4 3.737C17.8167 4.229 19.15 4.90833 20.4 5.775C20.8334 6.075 21.1 6.51233 21.2 7.087C21.3 7.66233 21.1917 8.19167 20.875 8.675L13.675 19.5C13.475 19.8 13.225 20.025 12.925 20.175C12.625 20.325 12.3167 20.4 12 20.4ZM12 18.4L19.3 7.45C18.2167 6.7 17.0584 6.104 15.825 5.662C14.5917 5.22067 13.3167 5 12 5C10.6834 5 9.41269 5.22067 8.18802 5.662C6.96269 6.104 5.80002 6.7 4.70002 7.45L12 18.4ZM9.50002 10C9.91669 10 10.2707 9.854 10.562 9.562C10.854 9.27067 11 8.91667 11 8.5C11 8.08333 10.854 7.72933 10.562 7.438C10.2707 7.146 9.91669 7 9.50002 7C9.08336 7 8.72936 7.146 8.43802 7.438C8.14602 7.72933 8.00002 8.08333 8.00002 8.5C8.00002 8.91667 8.14602 9.27067 8.43802 9.562C8.72936 9.854 9.08336 10 9.50002 10ZM12 15C12.4167 15 12.7707 14.854 13.062 14.562C13.354 14.2707 13.5 13.9167 13.5 13.5C13.5 13.0833 13.354 12.7293 13.062 12.438C12.7707 12.146 12.4167 12 12 12C11.5834 12 11.2294 12.146 10.938 12.438C10.646 12.7293 10.5 13.0833 10.5 13.5C10.5 13.9167 10.646 14.2707 10.938 14.562C11.2294 14.854 11.5834 15 12 15Z" fill="#696969"/>
</g>
</svg>
