<svg width="28" height="28" viewBox="0 0 28 28" fill="none" xmlns="http://www.w3.org/2000/svg">
<mask id="mask0_2_49" style="mask-type:alpha" maskUnits="userSpaceOnUse" x="0" y="0" width="28" height="28">
<rect width="28" height="28" fill="#D9D9D9"/>
</mask>
<g mask="url(#mask0_2_49)">
<path d="M14 14C12.7167 14 11.6181 13.5431 10.7042 12.6292C9.7903 11.7153 9.33335 10.6167 9.33335 9.33334C9.33335 8.05 9.7903 6.95139 10.7042 6.03751C11.6181 5.12362 12.7167 4.66667 14 4.66667C15.2834 4.66667 16.382 5.12362 17.2959 6.03751C18.2097 6.95139 18.6667 8.05 18.6667 9.33334C18.6667 10.6167 18.2097 11.7153 17.2959 12.6292C16.382 13.5431 15.2834 14 14 14ZM21 23.3333H7.00002C6.35835 23.3333 5.80924 23.1051 5.35269 22.6485C4.89535 22.1912 4.66669 21.6417 4.66669 21V20.0667C4.66669 19.4056 4.83702 18.7977 5.17769 18.2432C5.51758 17.6894 5.96946 17.2667 6.53335 16.975C7.73891 16.3722 8.96391 15.9199 10.2084 15.6182C11.4528 15.3172 12.7167 15.1667 14 15.1667C15.2834 15.1667 16.5472 15.3172 17.7917 15.6182C19.0361 15.9199 20.2611 16.3722 21.4667 16.975C22.0306 17.2667 22.4825 17.6894 22.8224 18.2432C23.163 18.7977 23.3334 19.4056 23.3334 20.0667V21C23.3334 21.6417 23.1051 22.1912 22.6485 22.6485C22.1912 23.1051 21.6417 23.3333 21 23.3333ZM7.00002 21H21V20.0667C21 19.8528 20.9467 19.6583 20.8402 19.4833C20.7329 19.3083 20.5917 19.1722 20.4167 19.075C19.3667 18.55 18.307 18.1561 17.2375 17.8932C16.1681 17.6311 15.0889 17.5 14 17.5C12.9111 17.5 11.832 17.6311 10.7625 17.8932C9.69308 18.1561 8.63335 18.55 7.58335 19.075C7.40835 19.1722 7.26758 19.3083 7.16102 19.4833C7.05369 19.6583 7.00002 19.8528 7.00002 20.0667V21ZM14 11.6667C14.6417 11.6667 15.1912 11.438 15.6485 10.9807C16.1051 10.5241 16.3334 9.97501 16.3334 9.33334C16.3334 8.69167 16.1051 8.14256 15.6485 7.686C15.1912 7.22867 14.6417 7.00001 14 7.00001C13.3584 7.00001 12.8092 7.22867 12.3527 7.686C11.8954 8.14256 11.6667 8.69167 11.6667 9.33334C11.6667 9.97501 11.8954 10.5241 12.3527 10.9807C12.8092 11.438 13.3584 11.6667 14 11.6667Z" fill="#696969"/>
</g>
</svg>
