<svg width="24" height="24" viewBox="0 0 24 24" fill="none" xmlns="http://www.w3.org/2000/svg">
<mask id="mask0_2_61" style="mask-type:alpha" maskUnits="userSpaceOnUse" x="0" y="0" width="24" height="24">
<rect width="24" height="24" fill="#D9D9D9"/>
</mask>
<g mask="url(#mask0_2_61)">
<path d="M5 21C4.71666 21 4.479 20.904 4.287 20.712C4.09566 20.5207 4 20.2833 4 20V11.625L3 12.4C2.76666 12.5667 2.51666 12.6333 2.25 12.6C1.98333 12.5667 1.76666 12.4333 1.6 12.2C1.43333 11.9667 1.36666 11.7167 1.4 11.45C1.43333 11.1833 1.55833 10.9667 1.775 10.8L4 9.1V7C4 6.71667 4.09566 6.479 4.287 6.287C4.479 6.09567 4.71666 6 5 6C5.28333 6 5.521 6.09567 5.713 6.287C5.90433 6.479 6 6.71667 6 7V7.575L11.4 3.475C11.4833 3.40833 11.575 3.354 11.675 3.312C11.775 3.27067 11.8833 3.25 12 3.25C12.1167 3.25 12.225 3.27067 12.325 3.312C12.425 3.354 12.5167 3.40833 12.6 3.475L22.225 10.8C22.4417 10.9667 22.5667 11.1833 22.6 11.45C22.6333 11.7167 22.5667 11.9667 22.4 12.2C22.2333 12.4167 22.0167 12.5417 21.75 12.575C21.4833 12.6083 21.2417 12.5417 21.025 12.375L20 11.625V20C20 20.2833 19.904 20.5207 19.712 20.712C19.5207 20.904 19.2833 21 19 21H5ZM6 19H11V16C11 15.7167 11.096 15.479 11.288 15.287C11.4793 15.0957 11.7167 15 12 15C12.2833 15 12.521 15.0957 12.713 15.287C12.9043 15.479 13 15.7167 13 16V19H18V10.1L12 5.525L6 10.1V19ZM5.3 5C4.93333 5 4.63733 4.84567 4.412 4.537C4.18733 4.229 4.175 3.9 4.375 3.55C4.64166 3.08333 5.00433 2.70833 5.463 2.425C5.921 2.14167 6.43333 2 7 2C7.18333 2 7.35833 1.95833 7.525 1.875C7.69166 1.79167 7.81666 1.65833 7.9 1.475C7.98333 1.325 8.096 1.20833 8.238 1.125C8.37933 1.04167 8.54166 1 8.725 1C9.10833 1 9.4 1.15833 9.6 1.475C9.8 1.79167 9.80833 2.11667 9.625 2.45C9.35833 2.91667 8.99566 3.29167 8.537 3.575C8.079 3.85833 7.56666 4 7 4C6.81666 4 6.64166 4.04567 6.475 4.137C6.30833 4.229 6.18333 4.35833 6.1 4.525C6.01666 4.69167 5.9 4.81233 5.75 4.887C5.6 4.96233 5.45 5 5.3 5Z" fill="#696969"/>
</g>
</svg>
