<svg width="24" height="24" viewBox="0 0 24 24" fill="none" xmlns="http://www.w3.org/2000/svg">
<mask id="mask0_2_49" style="mask-type:alpha" maskUnits="userSpaceOnUse" x="0" y="0" width="24" height="24">
<rect width="24" height="24" fill="#D9D9D9"/>
</mask>
<g mask="url(#mask0_2_49)">
<path d="M12.0001 12C10.9001 12 9.95839 11.6083 9.17506 10.825C8.39173 10.0417 8.00006 9.10002 8.00006 8.00002C8.00006 6.90002 8.39173 5.95835 9.17506 5.17502C9.95839 4.39168 10.9001 4.00002 12.0001 4.00002C13.1001 4.00002 14.0417 4.39168 14.8251 5.17502C15.6084 5.95835 16.0001 6.90002 16.0001 8.00002C16.0001 9.10002 15.6084 10.0417 14.8251 10.825C14.0417 11.6083 13.1001 12 12.0001 12ZM18.0001 20H6.00006C5.45006 20 4.97939 19.8043 4.58806 19.413C4.19606 19.021 4.00006 18.55 4.00006 18V17.2C4.00006 16.6333 4.14606 16.1123 4.43806 15.637C4.72939 15.1623 5.11673 14.8 5.60006 14.55C6.63339 14.0333 7.68339 13.6457 8.75006 13.387C9.81673 13.129 10.9001 13 12.0001 13C13.1001 13 14.1834 13.129 15.2501 13.387C16.3167 13.6457 17.3667 14.0333 18.4001 14.55C18.8834 14.8 19.2707 15.1623 19.5621 15.637C19.8541 16.1123 20.0001 16.6333 20.0001 17.2V18C20.0001 18.55 19.8044 19.021 19.4131 19.413C19.0211 19.8043 18.5501 20 18.0001 20ZM6.00006 18H18.0001V17.2C18.0001 17.0167 17.9544 16.85 17.8631 16.7C17.7711 16.55 17.6501 16.4333 17.5001 16.35C16.6001 15.9 15.6917 15.5623 14.7751 15.337C13.8584 15.1123 12.9334 15 12.0001 15C11.0667 15 10.1417 15.1123 9.22506 15.337C8.30839 15.5623 7.40006 15.9 6.50006 16.35C6.35006 16.4333 6.22939 16.55 6.13806 16.7C6.04606 16.85 6.00006 17.0167 6.00006 17.2V18ZM12.0001 10C12.5501 10 13.0211 9.80402 13.4131 9.41201C13.8044 9.02068 14.0001 8.55002 14.0001 8.00002C14.0001 7.45002 13.8044 6.97935 13.4131 6.58802C13.0211 6.19602 12.5501 6.00002 12.0001 6.00002C11.4501 6.00002 10.9794 6.19602 10.5881 6.58802C10.1961 6.97935 10.0001 7.45002 10.0001 8.00002C10.0001 8.55002 10.1961 9.02068 10.5881 9.41201C10.9794 9.80402 11.4501 10 12.0001 10Z" fill="#696969"/>
</g>
</svg>
