<svg width="28" height="28" viewBox="0 0 28 28" fill="none" xmlns="http://www.w3.org/2000/svg">
<mask id="mask0_1_14" style="mask-type:alpha" maskUnits="userSpaceOnUse" x="0" y="0" width="28" height="28">
<rect width="28" height="28" fill="#D9D9D9"/>
</mask>
<g mask="url(#mask0_1_14)">
<path d="M14 17.4417C13.8444 17.4417 13.6986 17.4172 13.5625 17.3682C13.4264 17.3199 13.3 17.2375 13.1833 17.1208L7.78749 11.725C7.5736 11.5111 7.47171 11.2435 7.48182 10.9223C7.49116 10.6019 7.60277 10.3347 7.81666 10.1208C8.03055 9.90694 8.30277 9.79999 8.63332 9.79999C8.96388 9.79999 9.2361 9.90694 9.44999 10.1208L14 14.6708L18.5792 10.0917C18.793 9.87777 19.0606 9.77549 19.3818 9.78483C19.7023 9.79494 19.9694 9.90694 20.1833 10.1208C20.3972 10.3347 20.5042 10.6069 20.5042 10.9375C20.5042 11.268 20.3972 11.5403 20.1833 11.7542L14.8167 17.1208C14.7 17.2375 14.5736 17.3199 14.4375 17.3682C14.3014 17.4172 14.1555 17.4417 14 17.4417Z" fill="#CACACA"/>
</g>
</svg>
